Coordinates
version=1
nRows=31
nColumns=38
inDegrees=no

Units are S.I. units (second, meters, Newtons, ...)
If the header above contains a line with 'inDegrees', this indicates whether rotational values are in degrees (yes) or radians (no).

endheader
time	pelvis_tilt	pelvis_list	pelvis_rotation	pelvis_tx	pelvis_ty	pelvis_tz	hip_flexion_r	hip_adduction_r	hip_rotation_r	knee_angle_r	ankle_angle_r	subtalar_angle_r	mtp_angle_r	hip_flexion_l	hip_adduction_l	hip_rotation_l	knee_angle_l	ankle_angle_l	subtalar_angle_l	mtp_angle_l	lumbar_extension	lumbar_bending	lumbar_rotation	arm_flex_r	arm_add_r	arm_rot_r	elbow_flex_r	pro_sup_r	wrist_flex_r	wrist_dev_r	arm_flex_l	arm_add_l	arm_rot_l	elbow_flex_l	pro_sup_l	wrist_flex_l	wrist_dev_l
0.66	2.93013	1.41276	-1.23734	0.620605	0.207485	0.944213	0.424965	-0.0918936	-0.115506	0.964441	0.0975109	0	0	-0.223001	0.0373151	-0.0565539	0.0425521	0.106166	0	0	-0.302552	-0.055741	-0.219562	-0.0972376	-0.232965	0.138233	0.527145	1.0491	0	0	-0.0518303	-0.478102	0.165845	0.764614	1.27213	0	0
0.67	2.92552	1.41546	-1.2263	0.620078	0.215552	0.943588	0.429242	-0.0952408	-0.132942	0.914466	0.110274	0	0	-0.237714	0.035702	-0.0463507	0.0262508	0.106063	0	0	-0.301761	-0.0547461	-0.224415	-0.0974941	-0.230723	0.139257	0.527408	1.04316	0	0	-0.0458121	-0.48153	0.165582	0.77173	1.26833	0	0
0.68	2.92397	1.41923	-1.21924	0.619695	0.223643	0.942665	0.43407	-0.098912	-0.14953	0.863675	0.120068	0	0	-0.249914	0.0348731	-0.0389952	0.0134253	0.108247	0	0	-0.29995	-0.0549885	-0.228448	-0.0978784	-0.228842	0.141296	0.527778	1.03494	0	0	-0.0397155	-0.48499	0.166431	0.778731	1.26311	0	0
0.69	2.90879	1.42253	-1.20104	0.619664	0.231371	0.941717	0.432952	-0.0935334	-0.142757	0.785482	0.106496	0	0	-0.260659	0.0320235	-0.0326354	0.0022246	0.111416	0	0	-0.298952	-0.0536189	-0.229825	-0.0966314	-0.227898	0.147607	0.528107	1.01726	0	0	-0.0326763	-0.488273	0.16854	0.786108	1.25149	0	0
0.7	2.91225	1.42751	-1.20013	0.61949	0.239508	0.940333	0.435635	-0.096475	-0.157598	0.729847	0.111804	0	0	-0.268814	0.0322303	-0.0281964	0	0.11752	0	0	-0.29637	-0.0555048	-0.233035	-0.0971073	-0.226965	0.153588	0.529583	1.00204	0	0	-0.0272708	-0.492006	0.171249	0.793849	1.24098	0	0
0.71	2.95732	1.43408	-1.2387	0.619208	0.248637	0.93831	0.450938	-0.126083	-0.229049	0.71979	0.139885	0	0	-0.278233	0.0380473	-0.0238032	0	0.125264	0	0	-0.291726	-0.063907	-0.239096	-0.101372	-0.226592	0.164473	0.533503	0.978386	0	0	-0.0254884	-0.497743	0.175917	0.804403	1.22379	0	0
0.72	2.9671	1.4398	-1.24729	0.619464	0.256913	0.936633	0.454656	-0.127045	-0.243985	0.665668	0.143698	0	0	-0.285279	0.0394472	-0.0224084	0	0.132578	0	0	-0.288931	-0.067216	-0.237979	-0.100348	-0.215237	0.116522	0.523992	1.07262	0	0	-0.0182683	-0.496033	0.164448	0.805116	1.2765	0	0
0.73	2.9797	1.44566	-1.26024	0.619898	0.265146	0.934794	0.458468	-0.126623	-0.256787	0.612514	0.146781	0	0	-0.291608	0.0414147	-0.0226829	0	0.140701	0	0	-0.285732	-0.0711626	-0.236184	-0.100384	-0.212562	0.112408	0.523639	1.07929	0	0	-0.0119449	-0.497723	0.165927	0.809294	1.27819	0	0
0.74	2.99377	1.45143	-1.27584	0.62045	0.273462	0.93287	0.461719	-0.124715	-0.267047	0.560229	0.151471	0	0	-0.297952	0.0435724	-0.0236466	0	0.149371	0	0	-0.282539	-0.0752666	-0.233082	-0.100467	-0.209955	0.107681	0.523361	1.08613	0	0	-0.00563855	-0.498976	0.16819	0.813058	1.27913	0	0
0.75	3.00852	1.45718	-1.29331	0.621101	0.281893	0.930863	0.464162	-0.121251	-0.273996	0.508743	0.159644	0	0	-0.304304	0.0458732	-0.0253481	0	0.158353	0	0	-0.27929	-0.0793382	-0.22886	-0.100504	-0.207622	0.10338	0.523346	1.09175	0	0	0.000392203	-0.499605	0.170587	0.816185	1.27925	0	0
0.76	3.02329	1.46258	-1.31193	0.621836	0.290417	0.928828	0.465481	-0.116246	-0.277019	0.458289	0.169844	0	0	-0.310956	0.0481658	-0.0279754	0	0.167578	0	0	-0.27623	-0.083133	-0.223618	-0.100117	-0.205544	0.0998219	0.523348	1.0961	0	0	0.00618267	-0.499614	0.173114	0.818279	1.27877	0	0
0.77	3.03714	1.46506	-1.33066	0.622775	0.298407	0.92702	0.46353	-0.106455	-0.270953	0.408371	0.17598	0	0	-0.30955	0.0516641	-0.0296954	0	0.176686	0	0	-0.276722	-0.0858083	-0.217036	-0.0990378	-0.205389	0.105214	0.525031	1.08157	0	0	0.0130879	-0.500677	0.182542	0.820285	1.25387	0	0
0.78	3.05424	1.47058	-1.35174	0.623493	0.30723	0.924871	0.464715	-0.100306	-0.268491	0.364323	0.181963	0	0	-0.315323	0.054109	-0.0321458	0	0.185011	0	0	-0.273204	-0.0890449	-0.212047	-0.0972779	-0.202233	0.0953535	0.522186	1.10411	0	0	0.0180557	-0.498052	0.179187	0.818347	1.27677	0	0
0.79	3.01782	1.47294	-1.32315	0.624385	0.316095	0.92332	0.433627	-0.0716928	-0.203009	0.257428	0.154259	0	0	-0.333368	0.0496213	-0.0429533	0	0.19547	0	0	-0.271943	-0.0859928	-0.202776	-0.0943966	-0.20563	0.113701	0.52459	1.06319	0	0	0.0253449	-0.49746	0.192191	0.817118	1.23298	0	0
0.8	3.08967	1.48105	-1.39819	0.62506	0.325515	0.920396	0.462602	-0.0890834	-0.260984	0.282042	0.183956	0	0	-0.336271	0.0574761	-0.0459402	0	0.207462	0	0	-0.264617	-0.0949654	-0.199227	-0.0966106	-0.205184	0.11834	0.5282	1.0397	0	0	0.0287533	-0.501649	0.210345	0.818902	1.20709	0	0
0.81	3.09654	1.47826	-1.40853	0.625791	0.334255	0.918863	0.450895	-0.0766724	-0.246495	0.243308	0.174285	0	0	-0.342336	0.0589203	-0.0448911	0	0.212956	0	0	-0.269695	-0.0941463	-0.195495	-0.0922802	-0.201132	0.0976614	0.522728	1.10696	0	0	0.0328676	-0.493061	0.189811	0.81041	1.272	0	0
0.82	3.08824	1.48045	-1.40351	0.626113	0.343979	0.917059	0.422593	-0.0605644	-0.201025	0.166708	0.149237	0	0	-0.359464	0.0560862	-0.0513392	0	0.223177	0	0	-0.267892	-0.0921932	-0.19253	-0.0897827	-0.201491	0.0986489	0.522859	1.10815	0	0	0.0362293	-0.489388	0.191195	0.804622	1.27194	0	0
0.83	3.1393	1.48217	-1.45604	0.626498	0.353878	0.914728	0.445798	-0.0740085	-0.260107	0.211945	0.17955	0	0	-0.369246	0.0598717	-0.052638	0	0.231936	0	0	-0.266308	-0.0959173	-0.192497	-0.0900889	-0.202941	0.107666	0.527331	1.09042	0	0	0.0365749	-0.489246	0.196647	0.802911	1.26031	0	0
0.84	-3.11327	1.48328	-1.48584	0.626526	0.363681	0.912661	0.449036	-0.0774553	-0.278492	0.222154	0.186926	0	0	-0.378003	0.060914	-0.0518917	0	0.240263	0	0	-0.265785	-0.0963479	-0.194625	-0.0889671	-0.20298	0.106486	0.529592	1.09395	0	0	0.0378139	-0.487196	0.199765	0.797528	1.26315	0	0
0.85	-3.13735	1.4799	-1.46063	0.626534	0.373411	0.911381	0.41955	-0.060612	-0.233059	0.175745	0.156151	0	0	-0.390132	0.0561011	-0.0538014	0	0.248458	0	0	-0.270409	-0.0905031	-0.196287	-0.0855875	-0.20236	0.0979969	0.529567	1.11323	0	0	0.0411665	-0.483078	0.201617	0.787929	1.2741	0	0
0.86	-3.08676	1.47997	-1.50866	0.626332	0.383948	0.909266	0.442348	-0.0787142	-0.292698	0.246644	0.182202	0	0	-0.399557	0.0581811	-0.0541398	0.00343682	0.256542	0	0	-0.270054	-0.0921157	-0.201774	-0.0853816	-0.203743	0.102222	0.533192	1.10609	0	0	0.0389343	-0.481921	0.205226	0.783899	1.27119	0	0
0.87	-3.10012	1.4786	-1.49108	0.626046	0.394165	0.907913	0.42203	-0.0685691	-0.266667	0.230192	0.163391	0	0	-0.406775	0.0530964	-0.0580489	0.0165182	0.26675	0	0	-0.272214	-0.0865977	-0.208171	-0.082352	-0.204444	0.102745	0.533921	1.10851	0	0	0.0383612	-0.4787	0.207609	0.775585	1.27283	0	0
0.88	-3.0627	1.47725	-1.52324	0.625613	0.405237	0.906162	0.436081	-0.0855492	-0.31271	0.295277	0.181748	0	0	-0.414341	0.0522792	-0.0643324	0.0317236	0.27789	0	0	-0.272481	-0.0860177	-0.216502	-0.0823003	-0.205338	0.10432	0.53627	1.11085	0	0	0.0346362	-0.476808	0.211075	0.768902	1.27524	0	0
0.89	-3.05177	1.47696	-1.52782	0.625189	0.41619	0.904702	0.433212	-0.0897002	-0.322838	0.317932	0.183763	0	0	-0.418132	0.0480138	-0.0716782	0.0511246	0.28929	0	0	-0.272207	-0.0824611	-0.22589	-0.081057	-0.206089	0.106852	0.537388	1.11267	0	0	0.0309312	-0.474527	0.214902	0.760853	1.27818	0	0
0.9	-3.06049	1.47703	-1.51296	0.625006	0.427142	0.903433	0.429185	-0.0895369	-0.327265	0.331753	0.177824	0	0	-0.415155	0.0402393	-0.0921872	0.0838545	0.307918	0	0	-0.271429	-0.0771408	-0.234822	-0.0791851	-0.208179	0.119309	0.538248	1.09515	0	0	0.0276298	-0.472951	0.22254	0.752147	1.26979	0	0
0.91	-3.08049	1.47637	-1.48874	0.625052	0.438271	0.90252	0.423566	-0.0859727	-0.327528	0.337563	0.158727	0	0	-0.418728	0.0326922	-0.0991427	0.103496	0.313577	0	0	-0.271424	-0.0708626	-0.241205	-0.0767087	-0.207797	0.11939	0.535754	1.0992	0	0	0.0243449	-0.469256	0.224894	0.742	1.27603	0	0
0.92	-3.11796	1.47587	-1.44826	0.625405	0.449512	0.901857	0.416639	-0.0790325	-0.326976	0.33661	0.126825	0	0	-0.418085	0.0225401	-0.112935	0.131288	0.321143	0	0	-0.271123	-0.0631449	-0.245622	-0.0740616	-0.207118	0.119857	0.532079	1.10273	0	0	0.0216015	-0.465099	0.228054	0.730154	1.28351	0	0
0.93	3.11997	1.47587	-1.40121	0.626023	0.460924	0.90137	0.409074	-0.0708264	-0.326915	0.334107	0.0931542	0	0	-0.414117	0.0109651	-0.129683	0.164548	0.328645	0	0	-0.269891	-0.0551123	-0.248267	-0.0720254	-0.20621	0.120467	0.528152	1.10562	0	0	0.0188859	-0.460639	0.23129	0.71793	1.29154	0	0
0.94	3.07114	1.47649	-1.35172	0.626834	0.472495	0.901028	0.403249	-0.0631461	-0.327488	0.337062	0.0670394	0	0	-0.406915	-0.00140439	-0.147539	0.202712	0.334379	0	0	-0.267339	-0.0472886	-0.249516	-0.0705561	-0.20531	0.121475	0.524173	1.10839	0	0	0.0157017	-0.455983	0.234449	0.705889	1.29957	0	0
0.95	3.02372	1.47697	-1.30424	0.627689	0.484239	0.90091	0.400719	-0.0575806	-0.329074	0.349829	0.0497171	0	0	-0.397707	-0.0142233	-0.164633	0.244865	0.336711	0	0	-0.264537	-0.0397851	-0.249926	-0.0700343	-0.204401	0.121977	0.521101	1.11064	0	0	0.0119258	-0.451057	0.237343	0.694262	1.30756	0	0
0.96	2.97674	1.47601	-1.25735	0.628521	0.496192	0.901192	0.399259	-0.0530508	-0.329502	0.369858	0.0389904	0	0	-0.388129	-0.0281251	-0.180252	0.290066	0.333962	0	0	-0.262571	-0.0319956	-0.249686	-0.0701454	-0.203828	0.123287	0.518471	1.11172	0	0	0.0077976	-0.446007	0.240781	0.683081	1.31563	0	0
